# xmcd
#
# Track frame offsets: 
#        150
#        15545
#        33445
#        54362
#        69487
#        88999
#        107695
#        130237
#        146912
#        162983
#
# Disc length: 2371 seconds
#
# Revision: 1
# Processed by: cddbd v1.5.2PL0 Copyright (c) Steve Scherf et al.
# Submitted via: ExactAudioCopy v0.99pb4
#
DISCID=8809410a
DTITLE=Kelly's Lot - The Light
DYEAR=2008
DGENRE=Blues
TTITLE0=Drive
TTITLE1=Strong Girl
TTITLE2=Unsure
TTITLE3=Green Toads
TTITLE4=Redbone
TTITLE5=The Light
TTITLE6=Tired
TTITLE7=Nobody Here But Me
TTITLE8=Fair
TTITLE9=Say Yes To Life
EXTD=
EXTT0=
EXTT1=
EXTT2=
EXTT3=
EXTT4=
EXTT5=
EXTT6=
EXTT7=
EXTT8=
EXTT9=
PLAYORDER=
